<svg
   height="85"
   width="285"
   id="svg20"
   version="1.1"
   viewBox="0 0 285 85">
  <title
     id="title2">Murillo Logo</title>
  <path
     style="stroke-width:7.15264"
     id="path4"
     d="M 59.726539,59.575088 59.575118,6.5861547 H 49.507056 L 29.976761,39.514782 10.14391,6.5861547 H 3e-5 V 59.575088 H 11.506488 V 28.463232 l 15.518377,25.51062 h 5.52599 L 48.14505,27.7823 48.22073,59.575803 Z"
     class="logo-st0" />
  <path
     style="stroke-width:7.15264"
     id="path6"
     d="m 100.67328,18.849363 v 20.136123 c 0,7.493826 -3.936313,10.976449 -9.386415,10.976449 -5.223217,0 -8.251289,-3.027929 -8.251289,-9.840609 V 18.850078 H 71.226561 V 41.86228 c 0,12.565765 7.191268,18.319352 17.410964,18.319352 4.996122,0 9.538055,-1.892446 12.641585,-5.450315 v 4.844701 H 112.4823 V 18.850292 Z"
     class="logo-st0" />
  <path
     style="stroke-width:7.15264"
     id="path8"
     d="m 134.74132,24.22386 v -5.374568 h -11.279 v 40.725724 h 11.80901 V 40.347278 c 0,-7.797097 4.31484,-11.354822 10.82482,-11.354822 0.90838,0 1.66535,0.07569 2.64948,0.1514 v -10.90063 c -6.28295,0 -11.12737,2.043869 -14.00416,5.980183 z"
     class="logo-st0" />
  <path
     style="stroke-width:7.15264"
     id="path10"
     d="m 161.68534,13.171594 c 4.3905,0 7.3429,-2.876579 7.3429,-6.8128934 C 169.02824,2.7251574 166.07599,0 161.68534,0 c -4.39052,0 -7.34291,2.8765789 -7.34291,6.5857971 0,3.7092179 2.95226,6.5857969 7.34291,6.5857969 z m -5.90451,46.403494 h 11.80901 V 18.849363 h -11.80901 z"
     class="logo-st0" />
  <path
     style="stroke-width:7.15264"
     id="path12"
     d="m 178.56558,59.575088 h 11.80901 V 3.4068044 h -11.80901 z"
     class="logo-st0" />
  <path
     style="stroke-width:7.15264"
     id="path14"
     d="m 201.35389,59.575088 h 11.80903 V 3.4068044 h -11.80903 z"
     class="logo-st0" />
  <path
     style="stroke-width:7.15264"
     id="path16"
     d="m 243.51873,60.183063 c 12.94414,0 22.33127,-8.705484 22.33127,-20.968692 0,-12.263208 -9.38641,-20.968692 -22.33127,-20.968692 -12.94485,0 -22.40708,8.705484 -22.40708,20.968692 0,12.263208 9.46223,20.968692 22.40708,20.968692 z m 0,-9.689687 c -5.9045,0 -10.44643,-4.239087 -10.44643,-11.279005 0,-7.039918 4.54193,-11.279004 10.44643,-11.279004 5.90452,0 10.37063,4.239086 10.37063,11.279004 0,7.039918 -4.46626,11.279005 -10.37063,11.279005 z"
     class="logo-st0" />
  <path
     style="stroke-width:7.15264"
     id="path18"
     d="m 277.6583,60.183063 c 4.08774,0 7.34291,-3.103676 7.34291,-7.418723 0,-4.390507 -3.25502,-7.267086 -7.34291,-7.267086 -4.08787,0 -7.3429,2.876579 -7.3429,7.267086 0,4.314832 3.25503,7.418723 7.3429,7.418723 z"
     class="logo-st0" />
</svg>
