<svg xmlns="http://www.w3.org/2000/svg">
<title>Murillo Logo</title>
<path class="logo-st0" d="m8.3503 8.3291-0.02117-7.4083h-1.4076l-2.7305 4.6037-2.7728-4.6037h-1.4182v7.4083h1.6087v-4.3497l2.1696 3.5666h0.77258l2.1802-3.6618 0.01058 4.445z"/>
<path class="logo-st0" d="m14.075 2.6353v2.8152c0 1.0477-0.55033 1.5346-1.3123 1.5346-0.73025 0-1.1536-0.42333-1.1536-1.3758v-2.9739h-1.651v3.2173c0 1.7568 1.0054 2.5612 2.4342 2.5612 0.6985 0 1.3335-0.26458 1.7674-0.762v0.67733h1.5663v-5.6938z"/>
<path class="logo-st0" d="m18.838 3.3867v-0.75141h-1.5769v5.6938h1.651v-2.6882c0-1.0901 0.60325-1.5875 1.5134-1.5875 0.127 0 0.23283 0.010583 0.37042 0.021167v-1.524c-0.87841 0-1.5557 0.28575-1.9579 0.83608z"/>
<path class="logo-st0" d="m22.605 1.8415c0.61383 0 1.0266-0.40217 1.0266-0.9525 0-0.508-0.41275-0.889-1.0266-0.889-0.61383 0-1.0266 0.40217-1.0266 0.92075s0.41275 0.92075 1.0266 0.92075zm-0.8255 6.4876h1.651v-5.6938h-1.651z"/>
<path class="logo-st0" d="m24.965 8.3291h1.651v-7.8528h-1.651z"/>
<path class="logo-st0" d="m28.151 8.3291h1.651v-7.8528h-1.651z"/>
<path class="logo-st0" d="m34.046 8.4141c1.8097 0 3.1221-1.2171 3.1221-2.9316s-1.3123-2.9316-3.1221-2.9316-3.1327 1.2171-3.1327 2.9316 1.3229 2.9316 3.1327 2.9316zm0-1.3547c-0.8255 0-1.4605-0.59266-1.4605-1.5769s0.635-1.5769 1.4605-1.5769 1.4499 0.59266 1.4499 1.5769-0.62442 1.5769-1.4499 1.5769z"/>
<path class="logo-st0" d="m38.819 8.4141c0.5715 0 1.0266-0.43392 1.0266-1.0372 0-0.61383-0.45508-1.016-1.0266-1.016s-1.0266 0.40217-1.0266 1.016c0 0.60325 0.45508 1.0372 1.0266 1.0372z"/>
</svg>
