<?xml version="1.0" encoding="UTF-8" standalone="no"?>
<svg
   xmlns:dc="http://purl.org/dc/elements/1.1/"
   xmlns:cc="http://creativecommons.org/ns#"
   xmlns:rdf="http://www.w3.org/1999/02/22-rdf-syntax-ns#"
   xmlns:svg="http://www.w3.org/2000/svg"
   xmlns="http://www.w3.org/2000/svg"
   xmlns:sodipodi="http://sodipodi.sourceforge.net/DTD/sodipodi-0.dtd"
   xmlns:inkscape="http://www.inkscape.org/namespaces/inkscape"
   inkscape:version="1.0 (4035a4fb49, 2020-05-01)"
   sodipodi:docname="murillo.svg"
   viewBox="0 0 239.7971 50.637417"
   version="1.1"
   id="svg20"
   width="239.7971"
   height="50.637417">
  <metadata
     id="metadata16">
    <rdf:RDF>
      <cc:Work
         rdf:about="">
        <dc:format>image/svg+xml</dc:format>
        <dc:type
           rdf:resource="http://purl.org/dc/dcmitype/StillImage" />
        <dc:title>Murillo Logo</dc:title>
      </cc:Work>
    </rdf:RDF>
  </metadata>
  <defs
     id="defs14" />
  <sodipodi:namedview
     inkscape:current-layer="svg20"
     inkscape:window-maximized="0"
     inkscape:window-y="62"
     inkscape:window-x="1930"
     inkscape:cy="177.65788"
     inkscape:cx="202.47949"
     inkscape:zoom="3.2526912"
     fit-margin-bottom="0"
     fit-margin-right="0"
     fit-margin-left="0"
     fit-margin-top="0"
     showgrid="false"
     id="namedview12"
     inkscape:window-height="2036"
     inkscape:window-width="1890"
     inkscape:pageshadow="2"
     inkscape:pageopacity="0"
     guidetolerance="10"
     gridtolerance="10"
     objecttolerance="10"
     borderopacity="1"
     bordercolor="#666666"
     pagecolor="#ffffff" />
  <title
     id="title2">Murillo Logo</title>
  <path
     class="logo-st0"
     d="M 50.253278,50.125874 50.125874,5.5415237 H 41.654709 L 25.222117,33.247337 8.5349577,5.5415237 H 0 V 50.125874 H 9.681417 V 23.948675 l 13.057005,21.464376 h 4.649512 l 13.120797,-22.037306 0.06368,26.750731 z"
     id="path4"
     style="stroke-width:6.01816" />
  <path
     class="logo-st0"
     d="m 84.705451,15.859663 v 16.942329 c 0,6.305229 -3.311974,9.235473 -7.897635,9.235473 -4.394761,0 -6.94255,-2.547669 -6.94255,-8.279789 V 15.860264 H 59.92928 v 19.362234 c 0,10.572707 6.05066,15.413716 14.649409,15.413716 4.203686,0 8.025222,-1.592284 10.636501,-4.585839 v 4.076282 h 9.42625 V 15.860444 Z"
     id="path6"
     style="stroke-width:6.01816" />
  <path
     class="logo-st0"
     d="m 113.36995,20.38171 v -4.522107 h -9.49003 v 34.266211 h 9.93598 V 33.94779 c 0,-6.560398 3.63046,-9.553832 9.10789,-9.553832 0.7643,0 1.40121,0.06368 2.22925,0.127387 v -9.17168 c -5.28641,0 -9.36246,1.719691 -11.78296,5.031665 z"
     id="path8"
     style="stroke-width:6.01816" />
  <path
     class="logo-st0"
     d="m 136.04038,11.082446 c 3.69412,0 6.17824,-2.4203249 6.17824,-5.7322999 C 142.21862,2.2929198 139.73463,0 136.04038,0 c -3.69414,0 -6.17825,2.4203243 -6.17825,5.5412228 0,3.1208983 2.484,5.5412232 6.17825,5.5412232 z m -4.968,39.043428 h 9.93599 V 15.859663 h -9.93599 z"
     id="path10"
     style="stroke-width:6.01816" />
  <path
     class="logo-st0"
     d="m 150.24324,50.125874 h 9.93598 V 2.8664506 h -9.93598 z"
     id="path12"
     style="stroke-width:6.01816" />
  <path
     class="logo-st0"
     d="m 169.41709,50.125874 h 9.936 V 2.8664506 h -9.936 z"
     id="path14"
     style="stroke-width:6.01816" />
  <path
     class="logo-st0"
     d="m 204.89416,50.637418 c 10.89107,0 18.78931,-7.324705 18.78931,-17.642844 0,-10.318139 -7.89763,-17.642845 -18.78931,-17.642845 -10.89166,0 -18.85309,7.324706 -18.85309,17.642845 0,10.318139 7.96143,17.642844 18.85309,17.642844 z m 0,-8.152804 c -4.96798,0 -8.78952,-3.566725 -8.78952,-9.49004 0,-5.923316 3.82154,-9.49004 8.78952,-9.49004 4.96801,0 8.72575,3.566724 8.72575,9.49004 0,5.923315 -3.75787,9.49004 -8.72575,9.49004 z"
     id="path16"
     style="stroke-width:6.01816" />
  <path
     class="logo-st0"
     d="m 233.61885,50.637418 c 3.43938,0 6.17825,-2.611401 6.17825,-6.242038 0,-3.694128 -2.73874,-6.114452 -6.17825,-6.114452 -3.43949,0 -6.17824,2.420324 -6.17824,6.114452 0,3.630456 2.73875,6.242038 6.17824,6.242038 z"
     id="path18"
     style="stroke-width:6.01816" />
</svg>
