<svg width="152.87" height="32.28" viewBox="0 0 152.86523 32.280626" xmlns="http://www.w3.org/2000/svg">
<title>Murillo Logo</title>
<path class="logo-st0" d="m32.034 31.955-0.081216-28.422h-5.4003l-10.476 17.662-10.638-17.662h-5.4409v28.422h6.1718v-16.687l8.3237 13.683h2.964l8.3645-14.048 0.04059 17.053z" stroke-width="3.8365"/>
<path class="logo-st0" d="m53.996 10.111v10.8c0 4.0195-2.1114 5.8875-5.0346 5.8875-2.8016 0-4.4258-1.6241-4.4258-5.2783v-11.409h-6.3341v12.343c0 6.7401 3.8572 9.8262 9.3385 9.8262 2.6798 0 5.116-1.0151 6.7809-2.9234v2.5986h6.0091v-21.844z" stroke-width="3.8365"/>
<path class="logo-st0" d="m72.27 12.993v-2.8828h-6.0497v21.844h6.3341v-10.313c0-4.1822 2.3144-6.0904 5.8062-6.0904 0.48723 0 0.89324 0.04059 1.4211 0.08121v-5.8468c-3.37 0-5.9685 1.0963-7.5115 3.2076z" stroke-width="3.8365"/>
<path class="logo-st0" d="m86.722 7.0649c2.3549 0 3.9385-1.5429 3.9385-3.6543 0-1.9489-1.5835-3.4106-3.9385-3.4106-2.3549 0-3.9385 1.5429-3.9385 3.5324s1.5835 3.5324 3.9385 3.5324zm-3.167 24.889h6.3341v-21.844h-6.3341z" stroke-width="3.8365"/>
<path class="logo-st0" d="m95.774 31.955h6.3341v-30.127h-6.3341z" stroke-width="3.8365"/>
<path class="logo-st0" d="m108 31.955h6.3341v-30.127h-6.3341z" stroke-width="3.8365"/>
<path class="logo-st0" d="m130.61 32.281c6.9429 0 11.978-4.6694 11.978-11.247 0-6.5778-5.0346-11.247-11.978-11.247-6.9435 0-12.019 4.6694-12.019 11.247 0 6.5778 5.0753 11.247 12.019 11.247zm0-5.1973c-3.167 0-5.6032-2.2737-5.6032-6.0497s2.4362-6.0497 5.6032-6.0497 5.5626 2.2737 5.5626 6.0497-2.3956 6.0497-5.5626 6.0497z" stroke-width="3.8365"/>
<path class="logo-st0" d="m148.93 32.281c2.1926 0 3.9385-1.6647 3.9385-3.9792 0-2.3549-1.7459-3.8979-3.9385-3.8979s-3.9385 1.5429-3.9385 3.8979c0 2.3144 1.746 3.9792 3.9385 3.9792z" stroke-width="3.8365"/>
</svg>

